<svg width="1257" height="87" viewBox="0 0 1257 87" fill="none" xmlns="http://www.w3.org/2000/svg">
<path d="M1252 74.0078L606.451 75.7246" stroke="#262626" stroke-width="2" stroke-miterlimit="10"/>
<path d="M617.85 75.751L3 76" stroke="#262626" stroke-width="2" stroke-miterlimit="10"/>
<path d="M10.9687 71.7258C8.72767 71.7258 6.90967 73.5438 6.90967 75.7848C6.90967 78.0258 8.72767 79.8438 10.9687 79.8438C13.2097 79.8438 15.0277 78.0258 15.0277 75.7848C15.0277 73.5438 13.2097 71.7258 10.9687 71.7258Z" fill="#262626"/>
<path d="M14.45 67.438C9.83408 65.5138 4.53221 67.6958 2.60795 72.3117C0.683696 76.9276 2.86573 82.2295 7.48164 84.1537C12.0976 86.078 17.3994 83.8959 19.3237 79.28C21.2479 74.6641 19.0659 69.3623 14.45 67.438Z" stroke="#262626" stroke-width="2" stroke-miterlimit="10"/>
<path d="M642.654 31.8243V79.7402" stroke="#262626" stroke-width="2" stroke-miterlimit="10"/>
<rect x="602.998" y="2.16016" width="81.0002" height="32.4" fill="white"/>
<path d="M628.014 24.6781V26H620.549V24.6781H623.533V15.1816C623.533 14.8965 623.542 14.6082 623.562 14.3166L621.083 16.4452C620.999 16.5165 620.915 16.5619 620.831 16.5813C620.746 16.5943 620.669 16.5943 620.597 16.5813C620.526 16.5684 620.458 16.5424 620.393 16.5036C620.335 16.4647 620.289 16.4226 620.257 16.3772L619.713 15.6288L623.863 12.0421H625.273V24.6781H628.014ZM636.113 24.7753C636.567 24.7753 636.972 24.7137 637.328 24.5906C637.691 24.461 637.995 24.2828 638.242 24.056C638.494 23.8227 638.686 23.5473 638.815 23.2298C638.951 22.9058 639.019 22.5494 639.019 22.1606C639.019 21.6811 638.938 21.2728 638.776 20.9359C638.621 20.5924 638.407 20.3138 638.135 20.1C637.869 19.8861 637.561 19.7306 637.211 19.6334C636.861 19.5297 636.495 19.4779 636.113 19.4779C635.731 19.4779 635.365 19.5297 635.015 19.6334C634.665 19.7306 634.354 19.8861 634.081 20.1C633.816 20.3138 633.602 20.5924 633.44 20.9359C633.284 21.2728 633.207 21.6811 633.207 22.1606C633.207 22.5494 633.271 22.9058 633.401 23.2298C633.537 23.5473 633.728 23.8227 633.975 24.056C634.227 24.2828 634.532 24.461 634.888 24.5906C635.251 24.7137 635.659 24.7753 636.113 24.7753ZM636.113 13.2571C635.698 13.2571 635.332 13.3186 635.015 13.4418C634.704 13.5649 634.441 13.7334 634.227 13.9472C634.02 14.161 633.861 14.4105 633.751 14.6956C633.647 14.9808 633.595 15.2853 633.595 15.6093C633.595 15.9268 633.641 16.2346 633.732 16.5327C633.822 16.8308 633.968 17.0965 634.169 17.3298C634.37 17.5566 634.629 17.7412 634.947 17.8838C635.271 18.0199 635.659 18.0879 636.113 18.0879C636.567 18.0879 636.952 18.0199 637.27 17.8838C637.594 17.7412 637.856 17.5566 638.057 17.3298C638.258 17.0965 638.404 16.8308 638.494 16.5327C638.585 16.2346 638.63 15.9268 638.63 15.6093C638.63 15.2853 638.575 14.9808 638.465 14.6956C638.362 14.4105 638.203 14.161 637.989 13.9472C637.782 13.7334 637.519 13.5649 637.202 13.4418C636.891 13.3186 636.528 13.2571 636.113 13.2571ZM638.106 18.7392C638.974 18.9854 639.641 19.3969 640.108 19.9736C640.574 20.5503 640.808 21.289 640.808 22.1898C640.808 22.7989 640.691 23.3497 640.458 23.8422C640.231 24.3282 639.91 24.7429 639.496 25.0863C639.087 25.4298 638.595 25.6954 638.018 25.8834C637.441 26.0648 636.806 26.1555 636.113 26.1555C635.42 26.1555 634.785 26.0648 634.208 25.8834C633.631 25.6954 633.135 25.4298 632.721 25.0863C632.306 24.7429 631.985 24.3282 631.758 23.8422C631.532 23.3497 631.418 22.7989 631.418 22.1898C631.418 21.289 631.651 20.5503 632.118 19.9736C632.585 19.3969 633.252 18.9854 634.12 18.7392C633.388 18.467 632.834 18.062 632.458 17.5242C632.089 16.9798 631.904 16.3318 631.904 15.5802C631.904 15.0682 632.005 14.5887 632.206 14.1416C632.406 13.6945 632.692 13.3057 633.061 12.9752C633.43 12.6447 633.871 12.3855 634.383 12.1976C634.901 12.0097 635.478 11.9157 636.113 11.9157C636.742 11.9157 637.315 12.0097 637.833 12.1976C638.352 12.3855 638.796 12.6447 639.165 12.9752C639.534 13.3057 639.82 13.6945 640.02 14.1416C640.221 14.5887 640.322 15.0682 640.322 15.5802C640.322 16.3318 640.134 16.9798 639.758 17.5242C639.389 18.062 638.838 18.467 638.106 18.7392ZM653.339 12.0712V12.8488C653.339 13.0692 653.313 13.2506 653.262 13.3932C653.216 13.5357 653.171 13.6556 653.126 13.7528L647.352 25.3876C647.268 25.5561 647.151 25.7019 647.002 25.825C646.853 25.9417 646.655 26 646.409 26H645.165L651.016 14.511C651.101 14.349 651.188 14.1999 651.279 14.0638C651.369 13.9278 651.467 13.7982 651.57 13.675H644.3C644.19 13.675 644.092 13.6329 644.008 13.5487C643.924 13.458 643.882 13.3575 643.882 13.2474V12.0712H653.339ZM664.782 24.3573C664.97 24.3573 665.119 24.4124 665.23 24.5226C665.34 24.6327 665.395 24.7753 665.395 24.9502V26H656.102V25.4071C656.102 25.284 656.128 25.1576 656.18 25.028C656.232 24.8984 656.313 24.7785 656.423 24.6684L660.885 20.1874C661.254 19.8116 661.591 19.452 661.896 19.1085C662.2 18.7586 662.459 18.4087 662.673 18.0588C662.887 17.7088 663.052 17.3557 663.169 16.9993C663.286 16.6364 663.344 16.2508 663.344 15.8426C663.344 15.4344 663.279 15.078 663.149 14.7734C663.02 14.4624 662.842 14.2064 662.615 14.0055C662.395 13.8046 662.132 13.6556 661.828 13.5584C661.523 13.4547 661.196 13.4029 660.846 13.4029C660.489 13.4029 660.162 13.4547 659.864 13.5584C659.566 13.6621 659.3 13.8079 659.067 13.9958C658.84 14.1772 658.649 14.3943 658.494 14.647C658.338 14.8998 658.228 15.1784 658.163 15.483C658.085 15.7098 657.978 15.862 657.842 15.9398C657.713 16.0111 657.528 16.0305 657.288 15.9981L656.384 15.8426C656.475 15.2076 656.65 14.647 656.909 14.161C657.175 13.6686 657.505 13.2571 657.901 12.9266C658.302 12.5961 658.759 12.3466 659.271 12.1782C659.783 12.0032 660.337 11.9157 660.933 11.9157C661.523 11.9157 662.074 12.0032 662.586 12.1782C663.098 12.3531 663.542 12.6091 663.917 12.946C664.293 13.2765 664.588 13.6815 664.802 14.161C665.016 14.6406 665.123 15.1849 665.123 15.794C665.123 16.3124 665.045 16.7952 664.889 17.2423C664.734 17.6829 664.523 18.1041 664.258 18.5059C663.992 18.9076 663.684 19.2997 663.334 19.682C662.991 20.0643 662.625 20.4499 662.236 20.8387L658.562 24.5906C658.821 24.5193 659.083 24.4642 659.349 24.4254C659.615 24.38 659.871 24.3573 660.117 24.3573H664.782Z" fill="#262626"/>
<path d="M249.195 74.5194C248.48 70.1285 244.342 67.148 239.951 67.8623C235.56 68.5766 232.579 72.7153 233.294 77.1062C234.008 81.4971 238.146 84.4776 242.537 83.7633C246.928 83.0489 249.909 78.9103 249.195 74.5194Z" stroke="#262626" stroke-width="0.9" stroke-miterlimit="10"/>
<path d="M241.191 71.7267C238.95 71.7267 237.132 73.5447 237.132 75.7857C237.132 78.0267 238.95 79.8447 241.191 79.8447C243.432 79.8447 245.25 78.0267 245.25 75.7857C245.25 73.5447 243.432 71.7267 241.191 71.7267Z" fill="#262626"/>
<path d="M444.633 68.3562C440.526 66.6444 435.81 68.5854 434.098 72.6916C432.387 76.7977 434.328 81.5141 438.434 83.2258C442.54 84.9376 447.256 82.9965 448.968 78.8904C450.68 74.7842 448.739 70.0679 444.633 68.3562Z" stroke="#262626" stroke-width="0.9" stroke-miterlimit="10"/>
<path d="M441.494 71.7253C439.253 71.7253 437.435 73.5433 437.435 75.7843C437.435 78.0253 439.253 79.8433 441.494 79.8433C443.735 79.8433 445.553 78.0253 445.553 75.7843C445.553 73.5433 443.735 71.7253 441.494 71.7253Z" fill="#262626"/>
<path d="M645.634 68.8889C641.528 67.1772 636.812 69.1182 635.1 73.2244C633.388 77.3305 635.329 82.0468 639.435 83.7585C643.541 85.4703 648.258 83.5293 649.969 79.4231C651.681 75.317 649.74 70.6006 645.634 68.8889Z" stroke="#262626" stroke-width="0.9" stroke-miterlimit="10"/>
<path d="M642.541 72.2607C640.3 72.2607 638.482 74.0787 638.482 76.3197C638.482 78.5607 640.3 80.3787 642.541 80.3787C644.782 80.3787 646.6 78.5607 646.6 76.3197C646.6 74.0787 644.782 72.2607 642.541 72.2607Z" fill="#262626"/>
<path d="M843.537 70.0656C841.296 70.0656 839.478 71.8836 839.478 74.1246C839.478 76.3656 841.296 78.1836 843.537 78.1836C845.778 78.1836 847.596 76.3656 847.596 74.1246C847.596 71.8836 845.778 70.0656 843.537 70.0656Z" fill="#262626"/>
<path d="M846.634 66.7009C842.527 64.9891 837.811 66.9302 836.099 71.0363C834.388 75.1425 836.329 79.8588 840.435 81.5705C844.541 83.2823 849.257 81.3412 850.969 77.2351C852.681 73.129 850.74 68.4126 846.634 66.7009Z" stroke="#262626" stroke-width="0.9" stroke-miterlimit="10"/>
<path d="M1044.54 70.0656C1042.3 70.0656 1040.48 71.8836 1040.48 74.1246C1040.48 76.3656 1042.3 78.1836 1044.54 78.1836C1046.78 78.1836 1048.6 76.3656 1048.6 74.1246C1048.6 71.8836 1046.78 70.0656 1044.54 70.0656Z" fill="#262626"/>
<path d="M1047.63 66.7009C1043.53 64.9891 1038.81 66.9302 1037.1 71.0363C1035.39 75.1425 1037.33 79.8588 1041.43 81.5705C1045.54 83.2823 1050.26 81.3412 1051.97 77.2351C1053.68 73.129 1051.74 68.4126 1047.63 66.7009Z" stroke="#262626" stroke-width="0.9" stroke-miterlimit="10"/>
<path d="M1245.54 70.0656C1243.3 70.0656 1241.48 71.8836 1241.48 74.1246C1241.48 76.3656 1243.3 78.1836 1245.54 78.1836C1247.78 78.1836 1249.6 76.3656 1249.6 74.1246C1249.6 71.8836 1247.78 70.0656 1245.54 70.0656Z" fill="#262626"/>
<path d="M1248.63 66.7009C1244.53 64.9891 1239.81 66.9302 1238.1 71.0363C1236.39 75.1425 1238.33 79.8588 1242.43 81.5705C1246.54 83.2823 1251.26 81.3412 1252.97 77.2351C1254.68 73.129 1252.74 68.4126 1248.63 66.7009Z" stroke="#262626" stroke-width="0.9" stroke-miterlimit="10"/>
</svg>
