<svg width="1257" height="87" viewBox="0 0 1257 87" fill="none" xmlns="http://www.w3.org/2000/svg">
<path d="M1252 74.0078L606.451 75.7246" stroke="#262626" stroke-width="2" stroke-miterlimit="10"/>
<path d="M617.85 75.751L3 76" stroke="#262626" stroke-width="2" stroke-miterlimit="10"/>
<path d="M10.9687 71.7263C8.72767 71.7263 6.90967 73.5442 6.90967 75.7852C6.90967 78.0262 8.72767 79.8442 10.9687 79.8442C13.2097 79.8442 15.0277 78.0262 15.0277 75.7852C15.0277 73.5442 13.2097 71.7263 10.9687 71.7263Z" fill="#262626"/>
<path d="M14.4502 67.4385C9.83432 65.5143 4.53246 67.6963 2.6082 72.3122C0.68394 76.9281 2.86597 82.2299 7.48189 84.1542C12.0978 86.0784 17.3997 83.8964 19.3239 79.2805C21.2482 74.6646 19.0662 69.3628 14.4502 67.4385Z" stroke="#262626" stroke-width="2" stroke-miterlimit="10"/>
<path d="M240.655 31.8243V79.7402" stroke="#262626" stroke-width="2" stroke-miterlimit="10"/>
<rect x="200.998" y="2.16016" width="81.0002" height="32.4" fill="white"/>
<path d="M226.014 24.6781V26H218.549V24.6781H221.533V15.1816C221.533 14.8965 221.543 14.6082 221.562 14.3166L219.084 16.4452C219 16.5165 218.915 16.5619 218.831 16.5813C218.747 16.5943 218.669 16.5943 218.598 16.5813C218.526 16.5684 218.458 16.5424 218.394 16.5036C218.335 16.4647 218.29 16.4226 218.258 16.3772L217.713 15.6288L221.864 12.0421H223.273V24.6781H226.014ZM234.113 24.7753C234.567 24.7753 234.972 24.7137 235.328 24.5906C235.691 24.461 235.996 24.2828 236.242 24.056C236.495 23.8227 236.686 23.5473 236.816 23.2298C236.952 22.9058 237.02 22.5494 237.02 22.1606C237.02 21.6811 236.939 21.2728 236.777 20.9359C236.621 20.5924 236.407 20.3138 236.135 20.1C235.87 19.8861 235.562 19.7306 235.212 19.6334C234.862 19.5297 234.496 19.4779 234.113 19.4779C233.731 19.4779 233.365 19.5297 233.015 19.6334C232.665 19.7306 232.354 19.8861 232.082 20.1C231.816 20.3138 231.602 20.5924 231.44 20.9359C231.285 21.2728 231.207 21.6811 231.207 22.1606C231.207 22.5494 231.272 22.9058 231.402 23.2298C231.538 23.5473 231.729 23.8227 231.975 24.056C232.228 24.2828 232.532 24.461 232.889 24.5906C233.252 24.7137 233.66 24.7753 234.113 24.7753ZM234.113 13.2571C233.699 13.2571 233.333 13.3186 233.015 13.4418C232.704 13.5649 232.442 13.7334 232.228 13.9472C232.02 14.161 231.862 14.4105 231.752 14.6956C231.648 14.9808 231.596 15.2853 231.596 15.6093C231.596 15.9268 231.641 16.2346 231.732 16.5327C231.823 16.8308 231.969 17.0965 232.169 17.3298C232.37 17.5566 232.63 17.7412 232.947 17.8838C233.271 18.0199 233.66 18.0879 234.113 18.0879C234.567 18.0879 234.953 18.0199 235.27 17.8838C235.594 17.7412 235.857 17.5566 236.057 17.3298C236.258 17.0965 236.404 16.8308 236.495 16.5327C236.586 16.2346 236.631 15.9268 236.631 15.6093C236.631 15.2853 236.576 14.9808 236.466 14.6956C236.362 14.4105 236.203 14.161 235.989 13.9472C235.782 13.7334 235.52 13.5649 235.202 13.4418C234.891 13.3186 234.528 13.2571 234.113 13.2571ZM236.106 18.7392C236.974 18.9854 237.642 19.3969 238.108 19.9736C238.575 20.5503 238.808 21.289 238.808 22.1898C238.808 22.7989 238.692 23.3497 238.458 23.8422C238.232 24.3282 237.911 24.7429 237.496 25.0863C237.088 25.4298 236.595 25.6954 236.019 25.8834C235.442 26.0648 234.807 26.1555 234.113 26.1555C233.42 26.1555 232.785 26.0648 232.208 25.8834C231.632 25.6954 231.136 25.4298 230.721 25.0863C230.306 24.7429 229.986 24.3282 229.759 23.8422C229.532 23.3497 229.419 22.7989 229.419 22.1898C229.419 21.289 229.652 20.5503 230.119 19.9736C230.585 19.3969 231.253 18.9854 232.121 18.7392C231.389 18.467 230.835 18.062 230.459 17.5242C230.089 16.9798 229.905 16.3318 229.905 15.5802C229.905 15.0682 230.005 14.5887 230.206 14.1416C230.407 13.6945 230.692 13.3057 231.061 12.9752C231.431 12.6447 231.871 12.3855 232.383 12.1976C232.902 12.0097 233.478 11.9157 234.113 11.9157C234.742 11.9157 235.316 12.0097 235.834 12.1976C236.352 12.3855 236.796 12.6447 237.166 12.9752C237.535 13.3057 237.82 13.6945 238.021 14.1416C238.222 14.5887 238.322 15.0682 238.322 15.5802C238.322 16.3318 238.134 16.9798 237.758 17.5242C237.389 18.062 236.838 18.467 236.106 18.7392ZM246.451 24.717C246.917 24.717 247.339 24.6424 247.714 24.4934C248.097 24.3444 248.421 24.137 248.686 23.8713C248.959 23.6056 249.166 23.2914 249.308 22.9285C249.457 22.5656 249.532 22.1703 249.532 21.7426C249.532 21.289 249.461 20.8808 249.318 20.5179C249.176 20.1486 248.971 19.8375 248.706 19.5848C248.447 19.3256 248.136 19.128 247.773 18.9919C247.41 18.8558 247.011 18.7878 246.577 18.7878C246.111 18.7878 245.689 18.8688 245.314 19.0308C244.938 19.1863 244.617 19.4001 244.351 19.6723C244.092 19.938 243.891 20.249 243.749 20.6054C243.613 20.9553 243.544 21.3214 243.544 21.7038C243.544 22.1509 243.609 22.5591 243.739 22.9285C243.868 23.2978 244.056 23.6154 244.303 23.881C244.555 24.1467 244.86 24.3541 245.216 24.5031C245.579 24.6457 245.991 24.717 246.451 24.717ZM245.44 17.2909C245.317 17.4464 245.197 17.5987 245.08 17.7477C244.97 17.8903 244.863 18.0328 244.759 18.1754C245.09 17.9486 245.453 17.7736 245.848 17.6505C246.243 17.5274 246.674 17.4658 247.141 17.4658C247.705 17.4658 248.236 17.5598 248.735 17.7477C249.234 17.9292 249.668 18.1981 250.037 18.5545C250.413 18.9044 250.711 19.3386 250.932 19.857C251.152 20.3689 251.262 20.9553 251.262 21.6163C251.262 22.2578 251.146 22.854 250.912 23.4048C250.679 23.9556 250.352 24.4351 249.931 24.8433C249.516 25.2516 249.014 25.5723 248.424 25.8056C247.841 26.0389 247.196 26.1555 246.49 26.1555C245.79 26.1555 245.155 26.0454 244.585 25.825C244.014 25.5982 243.528 25.2807 243.127 24.8725C242.731 24.4578 242.423 23.9588 242.203 23.3756C241.989 22.7859 241.882 22.1282 241.882 21.4024C241.882 20.7933 242.015 20.1453 242.281 19.4584C242.553 18.7651 242.984 18.0264 243.574 17.2423L247.112 12.4892C247.202 12.3726 247.326 12.2754 247.481 12.1976C247.643 12.1134 247.828 12.0712 248.035 12.0712H249.571L245.44 17.2909ZM262.783 24.3573C262.971 24.3573 263.12 24.4124 263.23 24.5226C263.34 24.6327 263.395 24.7753 263.395 24.9502V26H254.103V25.4071C254.103 25.284 254.129 25.1576 254.181 25.028C254.233 24.8984 254.314 24.7785 254.424 24.6684L258.885 20.1874C259.255 19.8116 259.592 19.452 259.896 19.1085C260.201 18.7586 260.46 18.4087 260.674 18.0588C260.888 17.7088 261.053 17.3557 261.169 16.9993C261.286 16.6364 261.344 16.2508 261.344 15.8426C261.344 15.4344 261.28 15.078 261.15 14.7734C261.02 14.4624 260.842 14.2064 260.615 14.0055C260.395 13.8046 260.133 13.6556 259.828 13.5584C259.524 13.4547 259.196 13.4029 258.846 13.4029C258.49 13.4029 258.163 13.4547 257.865 13.5584C257.567 13.6621 257.301 13.8079 257.068 13.9958C256.841 14.1772 256.65 14.3943 256.494 14.647C256.339 14.8998 256.228 15.1784 256.164 15.483C256.086 15.7098 255.979 15.862 255.843 15.9398C255.713 16.0111 255.529 16.0305 255.289 15.9981L254.385 15.8426C254.476 15.2076 254.651 14.647 254.91 14.161C255.175 13.6686 255.506 13.2571 255.901 12.9266C256.303 12.5961 256.76 12.3466 257.272 12.1782C257.784 12.0032 258.338 11.9157 258.934 11.9157C259.524 11.9157 260.074 12.0032 260.586 12.1782C261.098 12.3531 261.542 12.6091 261.918 12.946C262.294 13.2765 262.589 13.6815 262.802 14.161C263.016 14.6406 263.123 15.1849 263.123 15.794C263.123 16.3124 263.045 16.7952 262.89 17.2423C262.734 17.6829 262.524 18.1041 262.258 18.5059C261.992 18.9076 261.685 19.2997 261.335 19.682C260.991 20.0643 260.625 20.4499 260.236 20.8387L256.562 24.5906C256.821 24.5193 257.084 24.4642 257.349 24.4254C257.615 24.38 257.871 24.3573 258.117 24.3573H262.783Z" fill="#262626"/>
<path d="M249.195 74.5194C248.48 70.1285 244.342 67.148 239.951 67.8623C235.56 68.5766 232.579 72.7153 233.294 77.1062C234.008 81.4971 238.146 84.4776 242.537 83.7633C246.928 83.0489 249.909 78.9103 249.195 74.5194Z" stroke="#262626" stroke-width="0.9" stroke-miterlimit="10"/>
<path d="M241.191 71.7267C238.95 71.7267 237.132 73.5447 237.132 75.7857C237.132 78.0267 238.95 79.8447 241.191 79.8447C243.432 79.8447 245.25 78.0267 245.25 75.7857C245.25 73.5447 243.432 71.7267 241.191 71.7267Z" fill="#262626"/>
<path d="M444.633 68.3562C440.527 66.6444 435.81 68.5854 434.099 72.6916C432.387 76.7977 434.328 81.5141 438.434 83.2258C442.54 84.9376 447.257 82.9965 448.968 78.8904C450.68 74.7842 448.739 70.0679 444.633 68.3562Z" stroke="#262626" stroke-width="0.9" stroke-miterlimit="10"/>
<path d="M441.494 71.7253C439.253 71.7253 437.435 73.5433 437.435 75.7843C437.435 78.0253 439.253 79.8433 441.494 79.8433C443.735 79.8433 445.553 78.0253 445.553 75.7843C445.553 73.5433 443.735 71.7253 441.494 71.7253Z" fill="#262626"/>
<path d="M645.635 68.8889C641.528 67.1772 636.812 69.1182 635.1 73.2244C633.389 77.3305 635.33 82.0468 639.436 83.7585C643.542 85.4703 648.258 83.5293 649.97 79.4231C651.682 75.317 649.741 70.6006 645.635 68.8889Z" stroke="#262626" stroke-width="0.9" stroke-miterlimit="10"/>
<path d="M642.541 72.2607C640.3 72.2607 638.482 74.0787 638.482 76.3197C638.482 78.5607 640.3 80.3787 642.541 80.3787C644.782 80.3787 646.6 78.5607 646.6 76.3197C646.6 74.0787 644.782 72.2607 642.541 72.2607Z" fill="#262626"/>
<path d="M843.537 70.0656C841.296 70.0656 839.478 71.8836 839.478 74.1246C839.478 76.3656 841.296 78.1836 843.537 78.1836C845.778 78.1836 847.596 76.3656 847.596 74.1246C847.596 71.8836 845.778 70.0656 843.537 70.0656Z" fill="#262626"/>
<path d="M846.634 66.7009C842.527 64.9891 837.811 66.9302 836.099 71.0363C834.388 75.1425 836.329 79.8588 840.435 81.5705C844.541 83.2823 849.257 81.3412 850.969 77.2351C852.681 73.129 850.74 68.4126 846.634 66.7009Z" stroke="#262626" stroke-width="0.9" stroke-miterlimit="10"/>
<path d="M1044.54 70.0656C1042.3 70.0656 1040.48 71.8836 1040.48 74.1246C1040.48 76.3656 1042.3 78.1836 1044.54 78.1836C1046.78 78.1836 1048.6 76.3656 1048.6 74.1246C1048.6 71.8836 1046.78 70.0656 1044.54 70.0656Z" fill="#262626"/>
<path d="M1047.63 66.7009C1043.53 64.9891 1038.81 66.9302 1037.1 71.0363C1035.39 75.1425 1037.33 79.8588 1041.43 81.5705C1045.54 83.2823 1050.26 81.3412 1051.97 77.2351C1053.68 73.129 1051.74 68.4126 1047.63 66.7009Z" stroke="#262626" stroke-width="0.9" stroke-miterlimit="10"/>
<path d="M1245.54 70.0656C1243.3 70.0656 1241.48 71.8836 1241.48 74.1246C1241.48 76.3656 1243.3 78.1836 1245.54 78.1836C1247.78 78.1836 1249.6 76.3656 1249.6 74.1246C1249.6 71.8836 1247.78 70.0656 1245.54 70.0656Z" fill="#262626"/>
<path d="M1248.63 66.7009C1244.53 64.9891 1239.81 66.9302 1238.1 71.0363C1236.39 75.1425 1238.33 79.8588 1242.43 81.5705C1246.54 83.2823 1251.26 81.3412 1252.97 77.2351C1254.68 73.129 1252.74 68.4126 1248.63 66.7009Z" stroke="#262626" stroke-width="0.9" stroke-miterlimit="10"/>
</svg>
