<svg width="1286" height="87" viewBox="0 0 1286 87" fill="none" xmlns="http://www.w3.org/2000/svg">
<path d="M1281 74.0078L635.451 75.7246" stroke="#262626" stroke-width="2" stroke-miterlimit="10"/>
<path d="M646.85 75.751L32 76" stroke="#262626" stroke-width="2" stroke-miterlimit="10"/>
<path d="M39.6545 31.8246V79.7405" stroke="#262626" stroke-width="2" stroke-miterlimit="10"/>
<path d="M39.9688 71.7263C37.7278 71.7263 35.9098 73.5442 35.9098 75.7852C35.9098 78.0262 37.7278 79.8442 39.9688 79.8442C42.2098 79.8442 44.0278 78.0262 44.0278 75.7852C44.0278 73.5442 42.2098 71.7263 39.9688 71.7263Z" fill="#262626"/>
<path d="M43.4504 67.4385C38.8344 65.5143 33.5326 67.6963 31.6083 72.3122C29.6841 76.9281 31.8661 82.2299 36.482 84.1542C41.0979 86.0784 46.3998 83.8964 48.324 79.2805C50.2483 74.6646 48.0663 69.3628 43.4504 67.4385Z" stroke="#262626" stroke-width="2" stroke-miterlimit="10"/>
<rect y="2.1604" width="81.0002" height="32.4" fill="white"/>
<path d="M25.0157 24.6781V26H17.5507V24.6781H20.5348V15.1816C20.5348 14.8965 20.5445 14.6082 20.5639 14.3166L18.0853 16.4452C18.0011 16.5165 17.9168 16.5619 17.8326 16.5813C17.7484 16.5943 17.6706 16.5943 17.5993 16.5813C17.528 16.5684 17.46 16.5424 17.3952 16.5036C17.3369 16.4647 17.2915 16.4226 17.2591 16.3772L16.7148 15.6288L20.8652 12.0421H22.2746V24.6781H25.0157ZM37.9848 12.0712V12.8488C37.9848 13.0692 37.9589 13.2506 37.907 13.3932C37.8617 13.5357 37.8163 13.6556 37.7709 13.7528L31.9972 25.3876C31.913 25.5561 31.7964 25.7019 31.6473 25.825C31.4983 25.9417 31.3006 26 31.0544 26H29.8102L35.6617 14.511C35.7459 14.349 35.8334 14.1999 35.9241 14.0638C36.0149 13.9278 36.1121 13.7982 36.2157 13.675H28.9452C28.835 13.675 28.7378 13.6329 28.6536 13.5487C28.5693 13.458 28.5272 13.3575 28.5272 13.2474V12.0712H37.9848ZM45.4523 24.717C45.9189 24.717 46.3401 24.6424 46.7159 24.4934C47.0983 24.3444 47.4223 24.137 47.6879 23.8713C47.9601 23.6056 48.1675 23.2914 48.31 22.9285C48.4591 22.5656 48.5336 22.1703 48.5336 21.7426C48.5336 21.289 48.4623 20.8808 48.3197 20.5179C48.1772 20.1486 47.9731 19.8375 47.7074 19.5848C47.4482 19.3256 47.1371 19.128 46.7743 18.9919C46.4114 18.8558 46.0129 18.7878 45.5787 18.7878C45.1121 18.7878 44.6909 18.8688 44.3151 19.0308C43.9393 19.1863 43.6185 19.4001 43.3528 19.6723C43.0936 19.938 42.8927 20.249 42.7502 20.6054C42.6141 20.9553 42.5461 21.3214 42.5461 21.7038C42.5461 22.1509 42.6109 22.5591 42.7405 22.9285C42.8701 23.2978 43.058 23.6154 43.3042 23.881C43.5569 24.1467 43.8615 24.3541 44.2179 24.5031C44.5808 24.6457 44.9923 24.717 45.4523 24.717ZM44.4415 17.2909C44.3183 17.4464 44.1985 17.5987 44.0818 17.7477C43.9717 17.8903 43.8647 18.0328 43.7611 18.1754C44.0915 17.9486 44.4544 17.7736 44.8497 17.6505C45.245 17.5274 45.6759 17.4658 46.1425 17.4658C46.7062 17.4658 47.2376 17.5598 47.7365 17.7477C48.2355 17.9292 48.6697 18.1981 49.039 18.5545C49.4149 18.9044 49.7129 19.3386 49.9333 19.857C50.1536 20.3689 50.2637 20.9553 50.2637 21.6163C50.2637 22.2578 50.1471 22.854 49.9138 23.4048C49.6805 23.9556 49.3533 24.4351 48.9321 24.8433C48.5174 25.2516 48.0152 25.5723 47.4255 25.8056C46.8423 26.0389 46.1975 26.1555 45.4912 26.1555C44.7914 26.1555 44.1563 26.0454 43.5861 25.825C43.0159 25.5982 42.5299 25.2807 42.1281 24.8725C41.7328 24.4578 41.425 23.9588 41.2047 23.3756C40.9908 22.7859 40.8839 22.1282 40.8839 21.4024C40.8839 20.7933 41.0168 20.1453 41.2824 19.4584C41.5546 18.7651 41.9855 18.0264 42.5752 17.2423L46.1133 12.4892C46.204 12.3726 46.3271 12.2754 46.4827 12.1976C46.6447 12.1134 46.8293 12.0712 47.0367 12.0712H48.5725L44.4415 17.2909ZM55.7095 17.3298C56.4353 17.1742 57.1027 17.0965 57.7119 17.0965C58.4376 17.0965 59.0791 17.2034 59.6364 17.4172C60.1937 17.6311 60.657 17.9259 61.0264 18.3018C61.4022 18.6776 61.6841 19.1215 61.872 19.6334C62.0664 20.1453 62.1636 20.7026 62.1636 21.3052C62.1636 22.044 62.034 22.7114 61.7748 23.3076C61.5221 23.9037 61.1689 24.4156 60.7153 24.8433C60.2682 25.2645 59.7401 25.5885 59.131 25.8153C58.5219 26.0421 57.8641 26.1555 57.1578 26.1555C56.7496 26.1555 56.3575 26.1134 55.9817 26.0292C55.6059 25.9514 55.2527 25.8445 54.9222 25.7084C54.5982 25.5723 54.2969 25.4168 54.0183 25.2418C53.7396 25.0669 53.4934 24.8822 53.2795 24.6878L53.8141 23.9491C53.9308 23.7806 54.0831 23.6964 54.271 23.6964C54.4006 23.6964 54.5464 23.7482 54.7084 23.8519C54.8704 23.9491 55.068 24.0592 55.3013 24.1824C55.5346 24.3055 55.8067 24.4189 56.1178 24.5226C56.4353 24.6198 56.8111 24.6684 57.2453 24.6684C57.7313 24.6684 58.1687 24.5906 58.5575 24.4351C58.9463 24.2796 59.28 24.0592 59.5587 23.7741C59.8373 23.4825 60.0511 23.1358 60.2002 22.7341C60.3492 22.3323 60.4237 21.882 60.4237 21.383C60.4237 20.9488 60.3589 20.5568 60.2293 20.2069C60.1062 19.857 59.9151 19.5589 59.6559 19.3126C59.4031 19.0664 59.0856 18.8752 58.7033 18.7392C58.321 18.6031 57.8739 18.535 57.3619 18.535C57.012 18.535 56.6459 18.5642 56.2636 18.6225C55.8877 18.6808 55.5022 18.7748 55.1069 18.9044L54.0183 18.5836L55.1361 12.0712H61.7359V12.8294C61.7359 13.0756 61.6582 13.2798 61.5027 13.4418C61.3536 13.5973 61.0944 13.675 60.7251 13.675H56.3511L55.7095 17.3298Z" fill="#262626"/>
<path d="M278.195 74.5194C277.48 70.1285 273.342 67.148 268.951 67.8623C264.56 68.5766 261.579 72.7153 262.294 77.1062C263.008 81.4971 267.146 84.4776 271.537 83.7633C275.928 83.0489 278.909 78.9103 278.195 74.5194Z" stroke="#262626" stroke-width="0.9" stroke-miterlimit="10"/>
<path d="M270.191 71.7267C267.95 71.7267 266.132 73.5447 266.132 75.7857C266.132 78.0267 267.95 79.8447 270.191 79.8447C272.432 79.8447 274.25 78.0267 274.25 75.7857C274.25 73.5447 272.432 71.7267 270.191 71.7267Z" fill="#262626"/>
<path d="M473.633 68.3562C469.527 66.6444 464.81 68.5854 463.099 72.6916C461.387 76.7977 463.328 81.5141 467.434 83.2258C471.54 84.9376 476.257 82.9965 477.968 78.8904C479.68 74.7842 477.739 70.0679 473.633 68.3562Z" stroke="#262626" stroke-width="0.9" stroke-miterlimit="10"/>
<path d="M470.494 71.7253C468.253 71.7253 466.435 73.5433 466.435 75.7843C466.435 78.0253 468.253 79.8433 470.494 79.8433C472.735 79.8433 474.553 78.0253 474.553 75.7843C474.553 73.5433 472.735 71.7253 470.494 71.7253Z" fill="#262626"/>
<path d="M674.635 68.8889C670.528 67.1772 665.812 69.1182 664.1 73.2244C662.389 77.3305 664.33 82.0468 668.436 83.7585C672.542 85.4703 677.258 83.5293 678.97 79.4231C680.682 75.317 678.741 70.6006 674.635 68.8889Z" stroke="#262626" stroke-width="0.9" stroke-miterlimit="10"/>
<path d="M671.541 72.2607C669.3 72.2607 667.482 74.0787 667.482 76.3197C667.482 78.5607 669.3 80.3787 671.541 80.3787C673.782 80.3787 675.6 78.5607 675.6 76.3197C675.6 74.0787 673.782 72.2607 671.541 72.2607Z" fill="#262626"/>
<path d="M872.537 70.0656C870.296 70.0656 868.478 71.8836 868.478 74.1246C868.478 76.3656 870.296 78.1836 872.537 78.1836C874.778 78.1836 876.596 76.3656 876.596 74.1246C876.596 71.8836 874.778 70.0656 872.537 70.0656Z" fill="#262626"/>
<path d="M875.634 66.7009C871.528 64.9891 866.811 66.9302 865.1 71.0363C863.388 75.1425 865.329 79.8588 869.435 81.5705C873.541 83.2823 878.258 81.3412 879.969 77.2351C881.681 73.129 879.74 68.4126 875.634 66.7009Z" stroke="#262626" stroke-width="0.9" stroke-miterlimit="10"/>
<path d="M1073.54 70.0656C1071.3 70.0656 1069.48 71.8836 1069.48 74.1246C1069.48 76.3656 1071.3 78.1836 1073.54 78.1836C1075.78 78.1836 1077.6 76.3656 1077.6 74.1246C1077.6 71.8836 1075.78 70.0656 1073.54 70.0656Z" fill="#262626"/>
<path d="M1076.63 66.7009C1072.53 64.9891 1067.81 66.9302 1066.1 71.0363C1064.39 75.1425 1066.33 79.8588 1070.43 81.5705C1074.54 83.2823 1079.26 81.3412 1080.97 77.2351C1082.68 73.129 1080.74 68.4126 1076.63 66.7009Z" stroke="#262626" stroke-width="0.9" stroke-miterlimit="10"/>
<path d="M1274.54 70.0656C1272.3 70.0656 1270.48 71.8836 1270.48 74.1246C1270.48 76.3656 1272.3 78.1836 1274.54 78.1836C1276.78 78.1836 1278.6 76.3656 1278.6 74.1246C1278.6 71.8836 1276.78 70.0656 1274.54 70.0656Z" fill="#262626"/>
<path d="M1277.63 66.7009C1273.53 64.9891 1268.81 66.9302 1267.1 71.0363C1265.39 75.1425 1267.33 79.8588 1271.43 81.5705C1275.54 83.2823 1280.26 81.3412 1281.97 77.2351C1283.68 73.129 1281.74 68.4126 1277.63 66.7009Z" stroke="#262626" stroke-width="0.9" stroke-miterlimit="10"/>
</svg>
