<svg width="1250" height="87" viewBox="0 0 1250 87" fill="none" xmlns="http://www.w3.org/2000/svg">
<path d="M1245.37 74.0174L603.404 75.7246" stroke="#262626" stroke-width="2" stroke-miterlimit="10"/>
<path d="M614.74 75.751L3.30566 76" stroke="#262626" stroke-width="2" stroke-miterlimit="10"/>
<path d="M11.2301 71.7258C9.0015 71.7258 7.1936 73.5438 7.1936 75.7848C7.1936 78.0258 9.0015 79.8438 11.2301 79.8438C13.4586 79.8438 15.2665 78.0258 15.2665 75.7848C15.2665 73.5438 13.4586 71.7258 11.2301 71.7258Z" fill="#262626"/>
<path d="M14.6926 67.4373C10.0965 65.5106 4.82398 67.697 2.91166 72.3099C0.999333 76.9228 3.16623 82.2278 7.76232 84.1545C12.3584 86.0811 17.6309 83.8948 19.5432 79.2819C21.4556 74.669 19.2887 69.364 14.6926 67.4373Z" stroke="#262626" stroke-width="2" stroke-miterlimit="10"/>
<path d="M438.528 31.8243V79.7402" stroke="#262626" stroke-width="2" stroke-miterlimit="10"/>
<rect x="401.998" y="2.16016" width="81.0002" height="32.4" fill="white"/>
<path d="M427.014 24.6781V26H419.549V24.6781H422.533V15.1816C422.533 14.8965 422.542 14.6082 422.562 14.3166L420.083 16.4452C419.999 16.5165 419.915 16.5619 419.831 16.5813C419.746 16.5943 419.669 16.5943 419.597 16.5813C419.526 16.5684 419.458 16.5424 419.393 16.5036C419.335 16.4647 419.289 16.4226 419.257 16.3772L418.713 15.6288L422.863 12.0421H424.273V24.6781H427.014ZM435.113 24.7753C435.567 24.7753 435.972 24.7137 436.328 24.5906C436.691 24.461 436.995 24.2828 437.242 24.056C437.494 23.8227 437.686 23.5473 437.815 23.2298C437.951 22.9058 438.019 22.5494 438.019 22.1606C438.019 21.6811 437.938 21.2728 437.776 20.9359C437.621 20.5924 437.407 20.3138 437.135 20.1C436.869 19.8861 436.561 19.7306 436.211 19.6334C435.861 19.5297 435.495 19.4779 435.113 19.4779C434.731 19.4779 434.365 19.5297 434.015 19.6334C433.665 19.7306 433.354 19.8861 433.081 20.1C432.816 20.3138 432.602 20.5924 432.44 20.9359C432.284 21.2728 432.207 21.6811 432.207 22.1606C432.207 22.5494 432.271 22.9058 432.401 23.2298C432.537 23.5473 432.728 23.8227 432.975 24.056C433.227 24.2828 433.532 24.461 433.888 24.5906C434.251 24.7137 434.659 24.7753 435.113 24.7753ZM435.113 13.2571C434.698 13.2571 434.332 13.3186 434.015 13.4418C433.704 13.5649 433.441 13.7334 433.227 13.9472C433.02 14.161 432.861 14.4105 432.751 14.6956C432.647 14.9808 432.595 15.2853 432.595 15.6093C432.595 15.9268 432.641 16.2346 432.732 16.5327C432.822 16.8308 432.968 17.0965 433.169 17.3298C433.37 17.5566 433.629 17.7412 433.947 17.8838C434.271 18.0199 434.659 18.0879 435.113 18.0879C435.567 18.0879 435.952 18.0199 436.27 17.8838C436.594 17.7412 436.856 17.5566 437.057 17.3298C437.258 17.0965 437.404 16.8308 437.494 16.5327C437.585 16.2346 437.63 15.9268 437.63 15.6093C437.63 15.2853 437.575 14.9808 437.465 14.6956C437.362 14.4105 437.203 14.161 436.989 13.9472C436.782 13.7334 436.519 13.5649 436.202 13.4418C435.891 13.3186 435.528 13.2571 435.113 13.2571ZM437.106 18.7392C437.974 18.9854 438.641 19.3969 439.108 19.9736C439.574 20.5503 439.808 21.289 439.808 22.1898C439.808 22.7989 439.691 23.3497 439.458 23.8422C439.231 24.3282 438.91 24.7429 438.496 25.0863C438.087 25.4298 437.595 25.6954 437.018 25.8834C436.441 26.0648 435.806 26.1555 435.113 26.1555C434.42 26.1555 433.785 26.0648 433.208 25.8834C432.631 25.6954 432.135 25.4298 431.721 25.0863C431.306 24.7429 430.985 24.3282 430.758 23.8422C430.532 23.3497 430.418 22.7989 430.418 22.1898C430.418 21.289 430.651 20.5503 431.118 19.9736C431.585 19.3969 432.252 18.9854 433.12 18.7392C432.388 18.467 431.834 18.062 431.458 17.5242C431.089 16.9798 430.904 16.3318 430.904 15.5802C430.904 15.0682 431.005 14.5887 431.206 14.1416C431.406 13.6945 431.692 13.3057 432.061 12.9752C432.43 12.6447 432.871 12.3855 433.383 12.1976C433.901 12.0097 434.478 11.9157 435.113 11.9157C435.742 11.9157 436.315 12.0097 436.833 12.1976C437.352 12.3855 437.796 12.6447 438.165 12.9752C438.534 13.3057 438.82 13.6945 439.02 14.1416C439.221 14.5887 439.322 15.0682 439.322 15.5802C439.322 16.3318 439.134 16.9798 438.758 17.5242C438.389 18.062 437.838 18.467 437.106 18.7392ZM452.339 12.0712V12.8488C452.339 13.0692 452.313 13.2506 452.262 13.3932C452.216 13.5357 452.171 13.6556 452.126 13.7528L446.352 25.3876C446.268 25.5561 446.151 25.7019 446.002 25.825C445.853 25.9417 445.655 26 445.409 26H444.165L450.016 14.511C450.101 14.349 450.188 14.1999 450.279 14.0638C450.369 13.9278 450.467 13.7982 450.57 13.675H443.3C443.19 13.675 443.092 13.6329 443.008 13.5487C442.924 13.458 442.882 13.3575 442.882 13.2474V12.0712H452.339ZM463.782 24.3573C463.97 24.3573 464.119 24.4124 464.23 24.5226C464.34 24.6327 464.395 24.7753 464.395 24.9502V26H455.102V25.4071C455.102 25.284 455.128 25.1576 455.18 25.028C455.232 24.8984 455.313 24.7785 455.423 24.6684L459.885 20.1874C460.254 19.8116 460.591 19.452 460.896 19.1085C461.2 18.7586 461.459 18.4087 461.673 18.0588C461.887 17.7088 462.052 17.3557 462.169 16.9993C462.286 16.6364 462.344 16.2508 462.344 15.8426C462.344 15.4344 462.279 15.078 462.149 14.7734C462.02 14.4624 461.842 14.2064 461.615 14.0055C461.395 13.8046 461.132 13.6556 460.828 13.5584C460.523 13.4547 460.196 13.4029 459.846 13.4029C459.489 13.4029 459.162 13.4547 458.864 13.5584C458.566 13.6621 458.3 13.8079 458.067 13.9958C457.84 14.1772 457.649 14.3943 457.494 14.647C457.338 14.8998 457.228 15.1784 457.163 15.483C457.085 15.7098 456.978 15.862 456.842 15.9398C456.713 16.0111 456.528 16.0305 456.288 15.9981L455.384 15.8426C455.475 15.2076 455.65 14.647 455.909 14.161C456.175 13.6686 456.505 13.2571 456.901 12.9266C457.302 12.5961 457.759 12.3466 458.271 12.1782C458.783 12.0032 459.337 11.9157 459.933 11.9157C460.523 11.9157 461.074 12.0032 461.586 12.1782C462.098 12.3531 462.542 12.6091 462.917 12.946C463.293 13.2765 463.588 13.6815 463.802 14.161C464.016 14.6406 464.123 15.1849 464.123 15.794C464.123 16.3124 464.045 16.7952 463.889 17.2423C463.734 17.6829 463.523 18.1041 463.258 18.5059C462.992 18.9076 462.684 19.2997 462.334 19.682C461.991 20.0643 461.625 20.4499 461.236 20.8387L457.562 24.5906C457.821 24.5193 458.083 24.4642 458.349 24.4254C458.615 24.38 458.871 24.3573 459.117 24.3573H463.782Z" fill="#262626"/>
<path d="M248.132 74.5194C247.422 70.1285 243.306 67.148 238.939 67.8623C234.573 68.5766 231.609 72.7153 232.319 77.1062C233.03 81.4971 237.145 84.4776 241.512 83.7633C245.878 83.0489 248.842 78.9103 248.132 74.5194Z" stroke="#262626" stroke-width="0.9" stroke-miterlimit="10"/>
<path d="M240.173 71.7267C237.945 71.7267 236.137 73.5447 236.137 75.7857C236.137 78.0267 237.945 79.8447 240.173 79.8447C242.402 79.8447 244.21 78.0267 244.21 75.7857C244.21 73.5447 242.402 71.7267 240.173 71.7267Z" fill="#262626"/>
<path d="M442.485 68.3562C438.401 66.6444 433.711 68.5854 432.009 72.6916C430.307 76.7977 432.237 81.5141 436.32 83.2258C440.404 84.9376 445.094 82.9965 446.796 78.8904C448.498 74.7842 446.568 70.0679 442.485 68.3562Z" stroke="#262626" stroke-width="0.9" stroke-miterlimit="10"/>
<path d="M439.363 71.7253C437.135 71.7253 435.327 73.5433 435.327 75.7843C435.327 78.0253 437.135 79.8433 439.363 79.8433C441.592 79.8433 443.4 78.0253 443.4 75.7843C443.4 73.5433 441.592 71.7253 439.363 71.7253Z" fill="#262626"/>
<path d="M642.37 68.8889C638.287 67.1772 633.596 69.1182 631.894 73.2244C630.192 77.3305 632.122 82.0468 636.206 83.7585C640.289 85.4703 644.979 83.5293 646.681 79.4231C648.384 75.317 646.453 70.6006 642.37 68.8889Z" stroke="#262626" stroke-width="0.9" stroke-miterlimit="10"/>
<path d="M639.294 72.2607C637.065 72.2607 635.257 74.0787 635.257 76.3197C635.257 78.5607 637.065 80.3787 639.294 80.3787C641.522 80.3787 643.33 78.5607 643.33 76.3197C643.33 74.0787 641.522 72.2607 639.294 72.2607Z" fill="#262626"/>
<path d="M839.173 70.0656C836.944 70.0656 835.136 71.8836 835.136 74.1246C835.136 76.3656 836.944 78.1836 839.173 78.1836C841.401 78.1836 843.209 76.3656 843.209 74.1246C843.209 71.8836 841.401 70.0656 839.173 70.0656Z" fill="#262626"/>
<path d="M842.252 66.7009C838.169 64.9891 833.479 66.9302 831.777 71.0363C830.074 75.1425 832.005 79.8588 836.088 81.5705C840.171 83.2823 844.861 81.3412 846.564 77.2351C848.266 73.129 846.336 68.4126 842.252 66.7009Z" stroke="#262626" stroke-width="0.9" stroke-miterlimit="10"/>
<path d="M1039.06 70.0656C1036.83 70.0656 1035.02 71.8836 1035.02 74.1246C1035.02 76.3656 1036.83 78.1836 1039.06 78.1836C1041.28 78.1836 1043.09 76.3656 1043.09 74.1246C1043.09 71.8836 1041.28 70.0656 1039.06 70.0656Z" fill="#262626"/>
<path d="M1042.14 66.7009C1038.05 64.9891 1033.36 66.9302 1031.66 71.0363C1029.96 75.1425 1031.89 79.8588 1035.97 81.5705C1040.05 83.2823 1044.74 81.3412 1046.45 77.2351C1048.15 73.129 1046.22 68.4126 1042.14 66.7009Z" stroke="#262626" stroke-width="0.9" stroke-miterlimit="10"/>
<path d="M1238.94 70.0656C1236.71 70.0656 1234.9 71.8836 1234.9 74.1246C1234.9 76.3656 1236.71 78.1836 1238.94 78.1836C1241.17 78.1836 1242.98 76.3656 1242.98 74.1246C1242.98 71.8836 1241.17 70.0656 1238.94 70.0656Z" fill="#262626"/>
<path d="M1242.02 66.7009C1237.94 64.9891 1233.25 66.9302 1231.54 71.0363C1229.84 75.1425 1231.77 79.8588 1235.85 81.5705C1239.94 83.2823 1244.63 81.3412 1246.33 77.2351C1248.03 73.129 1246.1 68.4126 1242.02 66.7009Z" stroke="#262626" stroke-width="0.9" stroke-miterlimit="10"/>
</svg>
